<svg width="1146" height="1174" viewBox="0 0 1146 1174" fill="none" xmlns="http://www.w3.org/2000/svg">
<path d="M540.075 185.98C533.16 190.171 529.389 197.085 528.341 206.744C526.874 219.107 535.884 224.157 562.516 230.442V180.742C553.904 180.951 546.151 182.418 540.075 185.98ZM583.469 256.864V305.937C592.479 305.937 600.881 305.098 607.167 302.165C614.5 298.603 617.853 293.574 617.853 285.382C617.874 269.436 605.071 262.522 583.469 256.864ZM583.469 256.864V305.937C592.479 305.937 600.881 305.098 607.167 302.165C614.5 298.603 617.853 293.574 617.853 285.382C617.874 269.436 605.071 262.522 583.469 256.864ZM528.341 206.744C526.874 219.107 535.884 224.157 562.516 230.442V180.742C553.925 180.951 546.151 182.418 540.075 185.98C533.181 190.171 529.41 197.106 528.341 206.744ZM572.992 0C435.435 0 323.461 112.183 323.461 249.95C323.461 387.717 435.435 499.9 572.992 499.9C710.549 499.9 822.502 387.717 822.502 249.95C822.502 112.183 710.549 0 572.992 0ZM572.992 451.435C461.857 451.435 371.696 361.064 371.696 249.929C371.696 138.793 461.857 48.4227 572.992 48.4227C683.918 48.4227 774.079 138.793 774.079 249.929C774.079 361.064 683.918 451.435 572.992 451.435ZM572.992 68.3491C472.983 68.3491 391.622 149.71 391.622 249.929C391.622 350.148 472.983 431.509 572.992 431.509C673.001 431.509 754.153 350.148 754.153 249.929C754.153 149.71 673.001 68.3491 572.992 68.3491ZM615.967 321.023C606.957 325.213 596.041 327.099 584.307 327.099C584.097 327.099 583.678 326.89 583.469 326.89V346.607C583.469 352.473 578.859 357.083 572.992 357.083C567.335 357.083 562.516 352.473 562.516 346.607V325.213C541.542 321.651 521.427 313.899 511.139 305.287C506.738 301.515 506.11 295.02 509.881 290.389C513.443 285.989 520.148 285.361 524.57 289.132C531.694 295.209 546.591 300.866 562.516 303.82V252.024C535.256 245.948 503.805 237.357 507.367 204.628C509.253 188.264 516.796 175.692 529.389 168.149C539.027 162.282 550.572 159.977 562.516 159.558V140.051C562.516 134.184 567.335 129.574 572.992 129.574C578.859 129.574 583.469 134.184 583.469 140.051V160.606C607.376 163.749 628.35 171.92 632.122 173.387C637.57 175.482 640.084 181.559 637.989 187.007C635.894 192.245 629.817 194.969 624.369 192.874C616.198 189.521 600.252 184.492 583.49 181.978V235.241C610.54 241.736 638.848 252.234 638.848 285.361C638.827 301.515 630.655 314.108 615.967 321.023ZM583.469 256.864V305.937C592.479 305.937 600.881 305.098 607.167 302.165C614.5 298.603 617.853 293.574 617.853 285.382C617.874 269.436 605.071 262.522 583.469 256.864ZM528.341 206.744C526.874 219.107 535.884 224.157 562.516 230.442V180.742C553.925 180.951 546.151 182.418 540.075 185.98C533.181 190.171 529.41 197.106 528.341 206.744ZM788.747 412.441C739.465 478.066 661.058 520.853 572.992 520.853C484.717 520.853 406.499 478.087 357.028 412.441L104.774 487.097L563.773 622.978C567.125 624.026 570.059 625.702 572.783 627.588C575.507 625.702 578.44 624.026 581.793 622.978L1041 487.097L788.747 412.441ZM557.885 643.093C556.837 642.674 88.8283 504.279 88.8283 504.279C87.7807 504.069 86.5235 503.86 85.2663 503.86C79.1899 503.86 73.1135 507.212 70.3686 511.822L1.18137 632.826C-0.0758173 634.922 -0.285348 636.807 0.343246 638.484C0.97184 639.95 2.43856 641.208 4.7434 641.836L473.591 780.651C474.848 780.86 476.105 781.07 477.362 781.07C483.439 781.07 489.515 777.717 492.239 773.107L561.426 652.124C563.563 648.332 561.468 644.141 557.885 643.093ZM510.51 783.584C504.015 794.689 490.793 802.044 477.383 802.044C474.031 802.044 470.888 801.625 467.745 800.577L74.3707 684.392V1016.52C74.3707 1016.73 74.1611 1016.73 74.1611 1016.73C74.3706 1023.64 80.2375 1031.63 86.733 1033.51L555.79 1172.12C557.675 1172.75 559.98 1173.17 562.495 1173.38V692.585L510.51 783.584ZM677.842 800.556C674.699 801.604 671.556 802.023 668.203 802.023C654.793 802.023 641.572 794.689 635.076 783.563L583.49 692.983V1173.38C585.795 1173.17 588.309 1172.75 590.195 1172.12L1059.04 1033.51C1065.54 1031.63 1071.4 1023.66 1071.61 1016.73C1071.61 1016.73 1071.61 1016.73 1071.61 1016.52V684.182L677.842 800.556ZM1144.38 632.826L1075.2 511.843C1072.47 507.233 1066.4 503.881 1060.3 503.881C1059.04 503.881 1057.78 504.09 1056.74 504.3L587.68 643.114C583.699 644.162 582.023 648.353 584.118 652.124L653.306 773.107C656.658 778.765 665.668 782.536 671.975 780.651L1140.82 641.836C1143.13 641.208 1144.59 639.95 1145.22 638.484C1145.85 636.807 1145.64 634.922 1144.38 632.826Z" fill="white"/>
<path d="M540.074 185.98C533.16 190.171 529.388 197.085 528.341 206.744C526.874 219.107 535.884 224.157 562.515 230.442V180.742C553.903 180.951 546.151 182.418 540.074 185.98ZM583.468 256.864V305.937C592.478 305.937 600.88 305.098 607.166 302.165C614.5 298.603 617.852 293.574 617.852 285.382C617.873 269.436 605.071 262.522 583.468 256.864ZM583.468 256.864V305.937C592.478 305.937 600.88 305.098 607.166 302.165C614.5 298.603 617.852 293.574 617.852 285.382C617.873 269.436 605.071 262.522 583.468 256.864ZM528.341 206.744C526.874 219.107 535.884 224.157 562.515 230.442V180.742C553.924 180.951 546.151 182.418 540.074 185.98C533.181 190.171 529.409 197.106 528.341 206.744ZM572.992 0C435.434 0 323.461 112.183 323.461 249.95C323.461 387.717 435.434 499.9 572.992 499.9C710.549 499.9 822.502 387.717 822.502 249.95C822.502 112.183 710.549 0 572.992 0ZM572.992 451.435C461.856 451.435 371.695 361.064 371.695 249.929C371.695 138.793 461.856 48.4227 572.992 48.4227C683.918 48.4227 774.079 138.793 774.079 249.929C774.079 361.064 683.918 451.435 572.992 451.435ZM572.992 68.3491C472.982 68.3491 391.621 149.71 391.621 249.929C391.621 350.148 472.982 431.509 572.992 431.509C673.001 431.509 754.152 350.148 754.152 249.929C754.152 149.71 673.001 68.3491 572.992 68.3491ZM615.967 321.023C606.957 325.213 596.04 327.099 584.306 327.099C584.097 327.099 583.678 326.89 583.468 326.89V346.607C583.468 352.473 578.859 357.083 572.992 357.083C567.334 357.083 562.515 352.473 562.515 346.607V325.213C541.541 321.651 521.426 313.899 511.138 305.287C506.738 301.515 506.109 295.02 509.881 290.389C513.443 285.989 520.148 285.361 524.569 289.132C531.693 295.209 546.591 300.866 562.515 303.82V252.024C535.255 245.948 503.804 237.357 507.367 204.628C509.252 188.264 516.795 175.692 529.388 168.149C539.027 162.282 550.572 159.977 562.515 159.558V140.051C562.515 134.184 567.334 129.574 572.992 129.574C578.859 129.574 583.468 134.184 583.468 140.051V160.606C607.376 163.749 628.35 171.92 632.121 173.387C637.569 175.482 640.084 181.559 637.988 187.007C635.893 192.245 629.817 194.969 624.369 192.874C616.197 189.521 600.252 184.492 583.489 181.978V235.241C610.54 241.736 638.847 252.234 638.847 285.361C638.826 301.515 630.655 314.108 615.967 321.023ZM583.468 256.864V305.937C592.478 305.937 600.88 305.098 607.166 302.165C614.5 298.603 617.852 293.574 617.852 285.382C617.873 269.436 605.071 262.522 583.468 256.864ZM528.341 206.744C526.874 219.107 535.884 224.157 562.515 230.442V180.742C553.924 180.951 546.151 182.418 540.074 185.98C533.181 190.171 529.409 197.106 528.341 206.744Z" fill="#F8C700"/>
</svg>
