<svg width="312" height="64" viewBox="0 0 312 64" fill="none" xmlns="http://www.w3.org/2000/svg">
<g clip-path="url(#clip0_90_5)">
<path d="M0 -0.000976562C0.0672611 -0.000976562 0.134013 -0.000976562 0.200255 -0.000976562C0.189045 0.0245011 0.188025 0.0499788 0.197197 0.0754566C0.16051 0.268068 0.142675 0.525902 0.143694 0.84896C0.149809 7.42425 0.154904 28.1728 0.158981 63.0946C0.154904 63.2444 0.101911 63.2795 0 63.2C0 60.3975 0 57.5949 0 54.7924C0.0642038 52.4484 0.0642038 50.1045 0 47.7605C0 39.6077 0 31.4548 0 23.302C0.0642038 20.0408 0.0642038 16.7797 0 13.5185C0 11.3784 0 9.23826 0 7.09813C0.0642038 5.62042 0.0642038 4.14272 0 2.66501C0 1.77635 0 0.887686 0 -0.000976562Z" fill="#3A3637" fill-opacity="0.275"/>
<path d="M0.204561 -0.000976562C104.077 -0.000976562 207.95 -0.000976562 311.822 -0.000976562C311.817 0.0112527 311.812 0.0239916 311.807 0.03724C311.701 0.0627177 311.525 0.0754566 311.278 0.0754566C207.586 0.0754566 103.894 0.0754566 0.201504 0.0754566C0.192332 0.0499788 0.193351 0.0245011 0.204561 -0.000976562Z" fill="#818180" fill-opacity="0.651"/>
<path d="M311.82 -0.000976562C311.881 -0.000976562 311.942 -0.000976562 312.002 -0.000976562C312.002 20.1172 312.002 40.2349 312.002 60.3521C311.938 60.8362 311.938 61.3203 312.002 61.8044C312.002 62.2885 312.002 62.7725 312.002 63.2566C311.927 63.2617 311.874 63.2332 311.843 63.171C311.874 42.4953 311.877 21.8202 311.849 1.14552C311.848 0.585011 311.833 0.215584 311.805 0.03724C311.81 0.0239916 311.815 0.0112527 311.82 -0.000976562Z" fill="#221B1B" fill-opacity="0.165"/>
<path d="M311.808 0.0380859C311.836 0.21643 311.851 0.585857 311.852 1.14637C311.879 21.821 311.877 42.4962 311.846 63.1718L311.814 63.178C311.636 63.1453 311.458 63.129 311.279 63.129C207.673 63.129 104.068 63.1326 0.463383 63.1397C0.357396 63.1499 0.257523 63.1352 0.163765 63.0954C0.159689 28.1736 0.154593 7.42509 0.148479 0.849806C0.14746 0.526748 0.165294 0.268914 0.201982 0.0763025C103.894 0.0763025 207.586 0.0763025 311.279 0.0763025C311.525 0.0763025 311.702 0.0635636 311.808 0.0380859ZM307.572 4.15936L4.41039 4.1563C4.37714 4.1563 4.34526 4.16951 4.32175 4.19302C4.29825 4.21652 4.28504 4.24841 4.28504 4.28165V58.9115C4.28504 58.9289 4.28848 58.9462 4.29516 58.9624C4.30185 58.9785 4.31164 58.9932 4.32399 59.0055C4.33634 59.0179 4.351 59.0276 4.36714 59.0343C4.38327 59.041 4.40057 59.0445 4.41803 59.0445C30.5714 59.0445 56.6927 59.0445 82.7819 59.0445C108.871 59.0445 134.96 59.0445 161.049 59.0445C209.916 59.0445 258.782 59.0404 307.648 59.0322C307.726 59.0322 307.753 58.9853 307.731 58.8916C307.783 58.7836 307.809 58.6689 307.809 58.5476C307.804 40.5604 307.801 22.4717 307.801 4.28165C307.801 4.23706 307.787 4.19357 307.761 4.15715C307.736 4.12074 307.699 4.0932 307.657 4.07834C307.627 4.06713 307.598 4.09414 307.572 4.15936Z" fill="white"/>
<path d="M0 2.66602C0.0642038 4.14372 0.0642038 5.62143 0 7.09914C0 5.62143 0 4.14372 0 2.66602Z" fill="#464242" fill-opacity="0.471"/>
<path d="M307.721 58.8919C307.714 40.765 307.712 22.6376 307.715 4.50972C307.715 4.49851 307.72 4.44806 307.731 4.35838C307.744 4.23405 307.688 4.16781 307.562 4.15966C307.589 4.09443 307.618 4.06743 307.648 4.07864C307.69 4.0935 307.727 4.12104 307.752 4.15745C307.778 4.19386 307.792 4.23736 307.792 4.28195C307.792 22.472 307.794 40.5607 307.799 58.5479C307.799 58.6692 307.773 58.7839 307.721 58.8919Z" fill="#FAFFFF" fill-opacity="0.992"/>
<path d="M0 13.5195C0.0642038 16.7807 0.0642038 20.0418 0 23.303C0 20.0418 0 16.7807 0 13.5195Z" fill="#464242" fill-opacity="0.471"/>
<path d="M259.478 43.7282C258.859 43.08 258.376 42.3952 258.027 41.6737C257.162 39.8872 256.697 37.9993 256.633 36.01C256.632 35.9999 256.634 35.9898 256.638 35.9804C256.641 35.9709 256.646 35.9623 256.653 35.955C256.66 35.9477 256.668 35.9419 256.677 35.938C256.687 35.934 256.696 35.932 256.706 35.932H266.601C266.627 35.9321 266.653 35.9416 266.672 35.9587C266.692 35.9758 266.705 35.9995 266.708 36.0253C266.883 37.2268 267.523 38.0558 268.63 38.5124C269.292 38.7845 270.031 38.9567 270.845 39.0291C271.078 39.0495 271.831 39.0653 273.104 39.0765C275.877 39.1009 278.65 39.107 281.423 39.0948C282.676 39.0887 283.579 39.052 284.132 38.9848C285.522 38.8135 286.135 38.0849 285.971 36.7988C285.93 36.4788 285.836 36.2163 285.69 36.0115C285.513 35.7649 285.286 35.5855 285.006 35.4734C284.54 35.2869 284.008 35.1937 283.41 35.1937C279.244 35.1957 275.079 35.1967 270.914 35.1967C270.904 35.1967 270.894 35.1948 270.884 35.1909C270.875 35.1871 270.867 35.1814 270.86 35.1743C270.853 35.1672 270.847 35.1588 270.843 35.1495C270.839 35.1403 270.837 35.1303 270.837 35.1203L270.846 28.0609C270.846 28.0403 270.854 28.0204 270.869 28.0058C270.883 27.9912 270.903 27.983 270.923 27.983C277.06 27.9646 280.828 27.9616 282.226 27.9738C282.929 27.9799 283.569 27.8989 284.146 27.7307C284.472 27.636 284.726 27.4744 284.907 27.2462C285.382 26.6479 285.428 25.9636 285.045 25.1932C284.837 24.7774 284.482 24.5109 283.981 24.3937C283.416 24.2622 282.844 24.196 282.264 24.1949C278.888 24.1919 275.512 24.1878 272.137 24.1827C271.407 24.1817 270.687 24.2474 269.977 24.3799C269.241 24.5165 268.702 24.7264 268.359 25.0097C267.88 25.4072 267.598 25.96 267.514 26.6683C267.508 26.7122 267.487 26.7526 267.454 26.7819C267.421 26.8111 267.378 26.8273 267.334 26.8273L257.28 26.8181C257.27 26.8182 257.26 26.8162 257.251 26.8122C257.242 26.8082 257.234 26.8024 257.227 26.795C257.221 26.7877 257.216 26.779 257.213 26.7696C257.21 26.7601 257.208 26.7501 257.209 26.7402C257.308 25.3807 257.577 24.0553 258.016 22.7641C258.939 20.0512 260.718 18.173 263.356 17.1295C265.055 16.4579 266.861 16.1098 268.774 16.0854C273.283 16.0263 278.863 16.0018 285.512 16.012C286.46 16.013 287.38 16.0813 288.273 16.2169C289.302 16.3738 290.191 16.6097 290.938 16.9246C293.08 17.8276 294.47 19.3934 295.108 21.6222C295.4 22.6444 295.497 23.6523 295.398 24.6459C295.277 25.8698 294.883 27.024 294.215 28.1083C293.508 29.2569 292.568 30.1353 291.396 30.7437C291.327 30.7804 291.33 30.8095 291.405 30.8309C292.553 31.1488 293.505 31.7644 294.261 32.6775C294.838 33.3735 295.269 34.1374 295.556 34.969C295.818 35.7323 295.986 36.5802 296.062 37.5127C296.164 38.7814 295.994 40.0064 295.554 41.1876C294.89 42.97 293.73 44.3585 292.076 45.3532C290.976 46.0146 289.832 46.489 288.646 46.7763C287.549 47.0423 286.313 47.1769 284.939 47.1799C279.983 47.1911 275.028 47.2059 270.073 47.2242C268.652 47.2293 267.242 47.1127 265.842 46.8742C264.639 46.6693 263.483 46.3147 262.373 45.8102C261.301 45.3231 260.336 44.6291 259.478 43.7282ZM266.474 35.9794C266.474 35.9745 266.472 35.9699 266.469 35.9664C266.466 35.963 266.461 35.9611 266.456 35.9611H256.838C256.833 35.9611 256.828 35.963 256.825 35.9664C256.821 35.9699 256.819 35.9745 256.819 35.9794V35.9825C256.819 35.9849 256.82 35.9873 256.821 35.9895C256.822 35.9917 256.823 35.9937 256.825 35.9954C256.826 35.9971 256.828 35.9985 256.831 35.9994C256.833 36.0003 256.835 36.0008 256.838 36.0008H266.456C266.458 36.0008 266.461 36.0003 266.463 35.9994C266.465 35.9985 266.467 35.9971 266.469 35.9954C266.471 35.9937 266.472 35.9917 266.473 35.9895C266.474 35.9873 266.474 35.9849 266.474 35.9825V35.9794Z" fill="white"/>
<path d="M34.4239 24.7347L18.1299 24.7255C18.1129 24.7255 18.096 24.7221 18.0802 24.7156C18.0644 24.7091 18.0501 24.6995 18.0381 24.6874C18.026 24.6754 18.0164 24.661 18.0099 24.6453C18.0034 24.6295 18 24.6126 18 24.5955V16.5471C18 16.5269 18.0081 16.5074 18.0224 16.4931C18.0367 16.4788 18.0562 16.4707 18.0764 16.4707H61.3376C61.3579 16.4707 61.3773 16.4788 61.3916 16.4931C61.406 16.5074 61.414 16.5269 61.414 16.5471V24.649C61.414 24.6693 61.406 24.6888 61.3916 24.7031C61.3773 24.7174 61.3579 24.7255 61.3376 24.7255L45.0497 24.7347C45.0213 24.7347 44.9941 24.7461 44.974 24.7664C44.9539 24.7868 44.9427 24.8144 44.9427 24.8432V46.7C44.9427 46.7203 44.9346 46.7397 44.9203 46.754C44.906 46.7684 44.8865 46.7764 44.8662 46.7764L34.5952 46.7673C34.5749 46.7673 34.5554 46.7594 34.5411 46.7453C34.5268 46.7313 34.5187 46.7122 34.5187 46.6924L34.5004 24.8096C34.5004 24.7897 34.4923 24.7706 34.478 24.7566C34.4637 24.7425 34.4442 24.7347 34.4239 24.7347Z" fill="white"/>
<path d="M80.0327 26.9329C87.1501 26.9441 94.2681 26.9471 101.387 26.942C103.375 26.94 105.25 27.3339 107.014 28.1237C108.045 28.5864 108.906 29.1229 109.597 29.7334C110.889 30.8727 111.707 32.299 112.049 34.0121C112.294 35.2371 112.364 36.5522 112.261 37.9576C112.174 39.1489 111.978 40.1456 111.673 40.9476C111.046 42.5945 109.94 43.9051 108.354 44.8794C107.311 45.5214 106.195 45.9978 105.008 46.3087C103.913 46.595 102.579 46.7397 101.004 46.7428C90.533 46.7652 80.0444 46.7764 69.5384 46.7764C69.5116 46.7764 69.486 46.7658 69.467 46.7469C69.4481 46.728 69.4375 46.7023 69.4375 46.6755V16.5563C69.4375 16.5336 69.4465 16.5118 69.4626 16.4958C69.4786 16.4797 69.5004 16.4707 69.5231 16.4707L108.923 16.4799C108.951 16.4799 108.978 16.4913 108.999 16.5117C109.019 16.532 109.03 16.5596 109.03 16.5884V24.169C109.03 24.195 109.02 24.2199 109.001 24.2382C108.983 24.2566 108.958 24.2669 108.932 24.2669L80.0907 24.2944C80.0702 24.2948 80.0506 24.3031 80.0361 24.3177C80.0215 24.3322 80.0132 24.3518 80.0128 24.3724L79.9578 26.858C79.9576 26.8677 79.9593 26.8774 79.963 26.8865C79.9667 26.8956 79.9722 26.9039 79.9792 26.9108C79.9861 26.9178 79.9944 26.9233 80.0036 26.9271C80.0128 26.9309 80.0227 26.9329 80.0327 26.9329ZM101.816 37.8811C102.188 37.3767 102.302 36.8228 102.159 36.2195C102.008 35.5836 101.623 35.1662 101.004 34.9675C100.46 34.7922 99.759 34.7117 98.9009 34.726C98.4036 34.7341 98.1493 34.7382 98.1381 34.7382C92.1285 34.7423 86.1147 34.7392 80.0969 34.729C80.0673 34.729 80.0389 34.7406 80.018 34.7613C79.997 34.7819 79.9853 34.8099 79.9853 34.8391V38.5507C79.9853 38.5734 79.9943 38.5952 80.0103 38.6112C80.0264 38.6273 80.0482 38.6363 80.0709 38.6363C86.6125 38.6363 93.119 38.6358 99.5904 38.6348C100.089 38.6348 100.577 38.565 101.055 38.4254C101.361 38.3367 101.614 38.1553 101.816 37.8811Z" fill="white"/>
<path d="M127.349 26.5293C127.349 26.568 127.365 26.5772 127.399 26.5568L143.574 16.512C143.618 16.485 143.669 16.4707 143.721 16.4707H160.348C160.494 16.4707 160.504 16.5094 160.38 16.5869L138.46 30.1813C138.453 30.1859 138.447 30.1922 138.443 30.1998C138.438 30.2073 138.436 30.2158 138.436 30.2244C138.436 30.2331 138.438 30.2416 138.442 30.2493C138.446 30.257 138.452 30.2636 138.459 30.2684L162.511 46.6832C162.603 46.7454 162.593 46.7764 162.482 46.7764H145.761C145.71 46.7764 145.661 46.7615 145.621 46.7336L127.459 34.2857C127.379 34.2317 127.339 34.2526 127.339 34.3484V46.6908C127.339 46.7135 127.33 46.7353 127.314 46.7514C127.298 46.7674 127.276 46.7764 127.254 46.7764H117.041C117.023 46.7764 117.006 46.773 116.989 46.7662C116.973 46.7594 116.958 46.7495 116.946 46.737C116.933 46.7245 116.923 46.7097 116.916 46.6934C116.91 46.6771 116.906 46.6596 116.906 46.6419V16.5273C116.906 16.5123 116.912 16.4979 116.923 16.4873C116.933 16.4767 116.948 16.4707 116.963 16.4707H127.214C127.247 16.4707 127.279 16.4839 127.303 16.5074C127.326 16.5309 127.339 16.5628 127.339 16.5961L127.349 26.5293Z" fill="white"/>
<path d="M196.288 27.8011C195.557 28.3688 194.914 28.78 194.36 29.0348C192.103 30.0702 189.644 30.5736 186.984 30.5451C186.963 30.5447 186.944 30.5363 186.929 30.5217C186.914 30.5072 186.906 30.4876 186.906 30.4671V22.3087C186.906 22.2877 186.914 22.2674 186.928 22.2516C186.943 22.2358 186.963 22.2257 186.984 22.2231C188.878 21.9846 190.667 21.4496 192.351 20.618C193.348 20.1268 194.223 19.6075 194.978 19.0603C195.932 18.3693 196.802 17.5413 197.585 16.5762C197.613 16.5432 197.647 16.5166 197.685 16.4983C197.723 16.4801 197.765 16.4707 197.807 16.4707L206.702 16.4799C206.723 16.4799 206.743 16.4881 206.758 16.5027C206.772 16.5173 206.78 16.5372 206.78 16.5578V46.6694C206.78 46.6978 206.769 46.725 206.749 46.7451C206.728 46.7652 206.701 46.7764 206.672 46.7764H196.433C196.413 46.7764 196.393 46.7684 196.379 46.754C196.364 46.7397 196.356 46.7203 196.356 46.7L196.347 27.8302C196.347 27.7792 196.327 27.7696 196.288 27.8011Z" fill="white"/>
<path d="M228.429 38.589L253.138 38.5982C253.16 38.5982 253.182 38.607 253.197 38.6228C253.213 38.6385 253.222 38.6599 253.222 38.6822L253.213 46.6726C253.213 46.6862 253.21 46.6997 253.205 46.7123C253.2 46.7249 253.192 46.7364 253.182 46.7461C253.172 46.7557 253.161 46.7634 253.148 46.7686C253.135 46.7738 253.121 46.7765 253.107 46.7765L213.679 46.7673C213.657 46.7674 213.637 46.7595 213.622 46.7453C213.606 46.7311 213.597 46.7116 213.596 46.6909C213.35 42.7235 214.454 39.2585 216.907 36.296C218.366 34.5329 220.204 33.122 222.419 32.0631C224.758 30.9441 227.191 30.0876 229.717 29.4934C231.562 29.0593 233.421 28.6955 235.294 28.402C236.597 28.1982 237.898 27.9801 239.197 27.7477C239.864 27.6285 240.692 27.4236 241.681 27.1332C241.966 27.0496 242.19 26.912 242.353 26.7204C242.511 26.535 242.574 26.3016 242.541 26.0203C242.465 25.3681 242.06 24.9905 241.327 24.8876C240.177 24.7255 239.021 24.645 237.859 24.6461C234.839 24.6481 231.82 24.6491 228.802 24.6491C228.064 24.6481 227.34 24.7459 226.631 24.9426C225.639 25.2178 225.06 25.869 224.894 26.8962C224.89 26.9197 224.878 26.941 224.861 26.9564C224.843 26.9718 224.82 26.9802 224.797 26.9803L214.593 26.9711C214.583 26.9712 214.574 26.9693 214.566 26.9655C214.557 26.9616 214.55 26.956 214.543 26.9489C214.537 26.9418 214.532 26.9335 214.53 26.9244C214.527 26.9153 214.526 26.9057 214.527 26.8962C214.687 25.4155 215.047 23.9245 215.608 22.4234C216.167 20.9233 217.035 19.7059 218.211 18.7714C218.915 18.2119 219.811 17.739 220.898 17.3528C222.393 16.8218 223.92 16.5406 225.477 16.509C227.862 16.4611 231.823 16.4463 237.362 16.4647C239.216 16.4708 240.235 16.4774 240.419 16.4845C242.251 16.5548 244.034 16.8178 245.77 17.2733C246.545 17.4771 247.308 17.7599 248.057 18.1217C248.857 18.509 249.537 18.9421 250.099 19.4211C251.426 20.5523 252.289 21.9892 252.687 23.7319C252.945 24.8601 253.009 26.082 252.88 27.3976C252.683 29.3818 251.768 30.9146 250.136 31.9959C248.613 33.0048 246.94 33.761 245.116 34.2644C242.804 34.9013 240.347 35.365 237.744 35.6555C236.664 35.7757 235.296 35.9653 233.641 36.2241C232.231 36.4453 230.873 36.8438 229.569 37.4196C229.042 37.6519 228.648 38.0188 228.387 38.5202C228.384 38.5273 228.382 38.5353 228.382 38.5433C228.383 38.5513 228.385 38.5591 228.389 38.566C228.393 38.5729 228.399 38.5786 228.406 38.5826C228.413 38.5866 228.421 38.5888 228.429 38.589Z" fill="white"/>
<path d="M266.457 35.9619H256.839C256.829 35.9619 256.82 35.9701 256.82 35.9803V35.9833C256.82 35.9934 256.829 36.0017 256.839 36.0017H266.457C266.467 36.0017 266.475 35.9934 266.475 35.9833V35.9803C266.475 35.9701 266.467 35.9619 266.457 35.9619Z" fill="#FAFFFF" fill-opacity="0.992"/>
<path d="M0 47.7617C0.0642038 50.1057 0.0642038 52.4496 0 54.7936C0 52.4496 0 50.1057 0 47.7617Z" fill="#464242" fill-opacity="0.471"/>
<path d="M312.001 60.3525C312.001 60.8366 312.001 61.3207 312.001 61.8048C311.937 61.3207 311.937 60.8366 312.001 60.3525Z" fill="#3A3637" fill-opacity="0.275"/>
<path d="M0.158981 63.0947C0.252739 63.1345 0.352611 63.1493 0.458599 63.1391C0.535032 63.1482 0.603312 63.1701 0.66344 63.2048C0.713376 63.2333 0.759236 63.2476 0.801019 63.2476C104.053 63.2527 207.305 63.2496 310.557 63.2384C311.187 63.2384 311.604 63.218 311.809 63.1773L311.841 63.1712C311.873 63.2333 311.926 63.2619 312 63.2568C312 63.267 312 63.2766 312 63.2858C208 63.2858 104 63.2858 0 63.2858C0 63.2573 0 63.2287 0 63.2002C0.101911 63.2797 0.154904 63.2445 0.158981 63.0947Z" fill="#7F7B7D" fill-opacity="0.608"/>
<path d="M0.460938 63.1396C104.066 63.1325 207.671 63.1289 311.276 63.1289C311.456 63.1289 311.634 63.1452 311.811 63.1778C311.606 63.2186 311.189 63.239 310.559 63.239C207.307 63.2502 104.055 63.2532 0.803358 63.2481C0.761574 63.2481 0.715715 63.2339 0.665778 63.2053C0.605651 63.1707 0.537371 63.1488 0.460938 63.1396Z" fill="#7F7B7D" fill-opacity="0.608"/>
</g>
<defs>
<clipPath id="clip0_90_5">
<rect width="312" height="63.2866" fill="white"/>
</clipPath>
</defs>
</svg>
